<svg width="34" height="34" viewBox="0 0 34 34" fill="none" xmlns="http://www.w3.org/2000/svg">
<path d="M23.6381 13.625H22.0349C21.5589 11.5421 20.5752 9.65173 19.1958 8.16882C17.8163 6.6859 16.0963 5.66986 14.2313 5.23615C12.3662 4.80243 10.4309 4.96843 8.64517 5.71529C6.85946 6.46214 5.29497 7.75991 4.12949 9.46111C2.964 11.1623 2.24425 13.1987 2.05201 15.339C1.85978 17.4793 2.20277 19.6375 3.04201 21.5686C3.88126 23.4996 5.1831 25.126 6.79962 26.2629C8.41613 27.3998 10.2825 28.0016 12.1867 28H23.6381C25.3254 28 26.9436 27.2427 28.1366 25.8948C29.3297 24.5469 30 22.7187 30 20.8125C30 18.9063 29.3297 17.0781 28.1366 15.7302C26.9436 14.3823 25.3254 13.625 23.6381 13.625Z" stroke="black" stroke-width="2" stroke-linecap="round" stroke-linejoin="round"/>
</svg>
